<?xml version="1.0" encoding="UTF-8"?>
<svg width="266px" height="157px" viewBox="0 0 266 157" version="1.1" xmlns="http://www.w3.org/2000/svg" xmlns:xlink="http://www.w3.org/1999/xlink">
    <!-- Generator: sketchtool 53.2 (72643) - https://sketchapp.com -->
    <title>56BE6EDF-CFB6-49B4-93B0-2153A31BB0B2</title>
    <desc>Created with sketchtool.</desc>
    <defs>
        <linearGradient x1="-35.1310525%" y1="20.4342096%" x2="122.328194%" y2="77.4314487%" id="linearGradient-1">
            <stop stop-color="#F7F7F7" offset="0%"></stop>
            <stop stop-color="#A9A8A8" offset="100%"></stop>
        </linearGradient>
    </defs>
    <g id="Feature-FM-V2" stroke="none" stroke-width="1" fill="none" fill-rule="evenodd">
        <g id="FB-ad-boost--Primary-global-banner" transform="translate(-579.000000, -332.000000)">
            <g id="Group" transform="translate(494.000000, 311.000000)">
                <g id="Icon/Grouped-Icons/Market-Copy-2" transform="translate(73.000000, 0.000000)">
                    <rect id="Bound" x="0" y="0" width="287" height="199"></rect>
                    <path d="M61.7961777,168.044444 L136.857716,168.044444 L136.857716,156.988889 L61.7961777,156.988889 L61.7961777,168.044444 Z M82.6915438,87.4640378 C84.6917131,90.8536711 84.0404438,95.4947933 81.1307054,98.4068267 L59.2767592,120.296827 C55.8283438,123.750582 50.2362592,123.750582 46.7878438,120.296827 L38.9814438,112.478338 C35.5330285,109.024582 35.5330285,103.426049 38.9814438,99.9700822 L60.8375977,78.0822933 C64.2860131,74.6285378 69.87589,74.6285378 73.3243054,78.0822933 L76.44819,81.2088044 L82.6915438,87.4640378 Z M53.2250331,79.4445589 C51.2292792,76.0527144 51.6840638,71.6150144 54.5915946,68.7029811 L76.4477485,46.8129811 C79.8961638,43.3592256 85.4882485,43.3592256 88.9366638,46.8129811 L96.7408562,54.6292589 C100.189272,58.0852256 100.189272,63.6837589 96.7408562,67.1397256 L74.88691,89.0275144 C71.4384946,92.48127 65.84641,92.48127 62.3979946,89.0275144 L59.3248869,85.9474367 M83.8731008,156.988889 L114.780793,156.988889 L114.780793,145.933333 L83.8731008,145.933333 L83.8731008,156.988889 Z M140.049598,97.2888889 L123.613328,97.2888889 L123.613328,130.579378 L140.049598,130.579378 M245.298679,88.0298611 C254.621764,93.1065722 260.955633,103.038883 260.955633,114.463694 C260.955633,125.974739 254.529041,135.971172 245.091156,141.010294 M256.48042,76.6200856 C268.530005,84.8210967 276.453412,98.7112967 276.453412,114.463252 C276.453412,130.217419 268.530005,144.107619 256.48042,152.30863 M225.303389,100.521312 C233.229005,100.521312 239.653389,106.993234 239.653389,114.977557 C239.653389,122.961879 233.229005,129.433801 225.303389,129.433801 M167.903389,137.088889 L179.842589,176.888889 L156.80532,176.888889 L145.826466,137.088889 M225.303389,159.2 L170.111082,137.088889 L148.550758,137.088889 C144.60782,137.088889 141.411082,134.4046 141.411082,130.455556 L141.411082,97.2888889 C141.411082,93.3398444 144.252382,90.6555556 148.19532,90.6555556 L170.111082,90.6555556 L225.303389,70.7555556 L225.303389,159.2 Z M147.277362,145.933333 L13.2461538,145.933333 L13.2461538,22.1111111 L185.446154,22.1111111 L185.446154,85.4904 M139.084615,44.2222222 L170.111082,44.2222222 L139.084615,44.2222222 Z M123.613328,57.4888889 L170.111082,57.4888889 L123.613328,57.4888889 Z" id="Market-Material_1" stroke="url(#linearGradient-1)" stroke-width="2"></path>
                </g>
            </g>
        </g>
    </g>
</svg>